# xmcd
# Track frame offsets:
# 150
# 12283
# 31296
# 52060
# 67051
# 79677
# 94776
# 107839
# 123662
# 138880
# 156369
# 174324
#
# Disc length: 2520 seconds
# Revision: 0
# Processed by: cddbd v1.5.2PL0 Copyright (c) Steve Scherf et al.
# Submitted via: VisiTrax 2.11.3.279 - For more info visit www.synapsa.com
#
DISCID=9f09d60c
DTITLE=Dawson. Peter - The Reason
DYEAR=2019
DGENRE=Country
TTITLE0=Stanley and Slim
TTITLE1=Salty and Fresh
TTITLE2=Music In The Mulga
TTITLE3=Bees In The Camphor Laurel Trees
TTITLE4=Coffee For One
TTITLE5=Morning Rain Again
TTITLE6=Fishing Up The Hawksbury River
TTITLE7=My Whiskey and Me (If your looking for me)
TTITLE8=That's When I Lost You
TTITLE9=Captain Moonlight
TTITLE10=We Were Young
TTITLE11=Pencil In The Picture
EXTD=
EXTT0=
EXTT1=
EXTT2=
EXTT3=
EXTT4=
EXTT5=
EXTT6=
EXTT7=
EXTT8=
EXTT9=
EXTT10=
EXTT11=
PLAYORDER=
